<?xml version="1.0" encoding="utf-8"?>
<!-- Generator: Adobe Illustrator 28.0.0, SVG Export Plug-In . SVG Version: 6.00 Build 0)  -->
<svg version="1.1" id="Layer_1" xmlns="http://www.w3.org/2000/svg" xmlns:xlink="http://www.w3.org/1999/xlink" x="0px" y="0px"
	 viewBox="0 0 1920 1080" style="enable-background:new 0 0 1920 1080;" xml:space="preserve">
<style type="text/css">
	.st0{fill:#FFFFFF;}
	.st1{fill:none;stroke:#FFFFFF;stroke-width:40;stroke-miterlimit:10;}
</style>
<g>
	<g>
		<path class="st0" d="M1725.96,101.57v876.87H194.04V101.57H1725.96 M1742.13,61.57H177.87c-13.16,0-23.83,10.67-23.83,23.83v909.2
			c0,13.16,10.67,23.83,23.83,23.83h1564.26c13.16,0,23.83-10.67,23.83-23.83V85.4C1765.96,72.24,1755.29,61.57,1742.13,61.57
			L1742.13,61.57z"/>
	</g>
	<g>
		<path class="st0" d="M1582.01,101.57l-281.64,250.8L966.86,649.35L633.35,352.36l-281.64-250.8h615.15H1582.01 M1687.08,61.57
			H966.86H246.64l360.11,320.67l360.11,320.67l360.11-320.67L1687.08,61.57L1687.08,61.57z"/>
	</g>
	<line class="st1" x1="172" y1="988" x2="751" y2="468"/>
	<line class="st1" x1="1732" y1="988" x2="1168" y2="487"/>
</g>
</svg>
