<?xml version="1.0" encoding="utf-8"?>
<!-- Generator: Adobe Illustrator 28.0.0, SVG Export Plug-In . SVG Version: 6.00 Build 0)  -->
<svg version="1.1" id="Layer_1" xmlns="http://www.w3.org/2000/svg" xmlns:xlink="http://www.w3.org/1999/xlink" x="0px" y="0px"
	 viewBox="0 0 360 463" style="enable-background:new 0 0 360 463;" xml:space="preserve">
<style type="text/css">
	.st0{fill:#5DA9E9;}
	.st1{fill:none;stroke:#EDC9FF;stroke-width:2;stroke-miterlimit:10;}
	.st2{fill:#3F612D;}
</style>
<g>
	<rect x="105.29" y="14.13" class="st0" width="242.31" height="186.9"/>
	<g>
		<path class="st1" d="M62.59,435.68h19.53v13.18H15.82v-30.71c0-13.38,8.45-24.17,23.49-24.17c14.21,0,23.29,10.79,23.29,24.17
			V435.68z M27.24,435.68h23.97v-16.02c0-6.98-4.83-12.11-11.91-12.11c-7.71,0-12.06,5.22-12.06,12.11V435.68z"/>
		<path class="st1" d="M34.27,365.9c0-14.4,10.6-25.05,24.41-25.05c13.87,0,24.41,10.64,24.41,25.05
			c0,14.36-10.55,25.05-24.41,25.05C44.87,390.95,34.27,380.26,34.27,365.9z M71.77,365.9c0-7.37-5.57-12.6-13.09-12.6
			c-7.47,0-13.04,5.22-13.04,12.6c0,7.32,5.57,12.6,13.04,12.6C66.21,378.5,71.77,373.23,71.77,365.9z"/>
		<path class="st1" d="M41.65,321.32c-4.88-2.39-7.37-6.93-7.37-12.21c0-2.78,0.73-5.13,1.07-6.1l11.18,0.98
			c-0.44,1.27-1.07,3.32-1.07,5.81c0,5.52,2.98,11.33,12.65,11.33h24.02v12.55H35.25v-12.11L41.65,321.32z"/>
		<path class="st1" d="M45.65,279.53h19.29c4.88,0,7.03-2.73,7.03-6.93c0-2.34-0.39-5.32-1.12-7.96l10.4-1.17
			c1.12,2.88,1.86,7.52,1.86,11.33c0,10.3-5.32,17.24-16.36,17.24H45.65v7.91h-10.4v-7.96H20.21v-12.16h15.04v-13.57h10.4V279.53z"
			/>
		<path class="st1" d="M45.65,239.68h36.47v12.55H45.65v8.25h-10.4v-8.35h-4.59c-10.25,0-18.26-6.45-18.26-19.34
			c0-3.86,0.88-6.59,1.66-8.89l10.25,1.32c-0.83,1.9-1.17,4.05-1.17,6.25c0,4.88,2.2,8.54,8.25,8.54h3.86v-13.38h10.4V239.68z"/>
		<path class="st1" d="M34.27,198.28c0-14.4,10.6-25.05,24.41-25.05c13.87,0,24.41,10.64,24.41,25.05
			c0,14.36-10.55,25.05-24.41,25.05C44.87,223.32,34.27,212.63,34.27,198.28z M71.77,198.28c0-7.37-5.57-12.6-13.09-12.6
			c-7.47,0-13.04,5.22-13.04,12.6c0,7.32,5.57,12.6,13.04,12.6C66.21,210.87,71.77,205.6,71.77,198.28z"/>
		<path class="st1" d="M82.13,151.55v12.5H13.38v-12.5H82.13z"/>
		<path class="st1" d="M20.21,140.66c-4.25,0-7.23-2.93-7.23-7.18s2.93-7.23,7.23-7.23c4.25,0,7.18,2.98,7.18,7.23
			S24.46,140.66,20.21,140.66z M82.13,139.73H35.25v-12.55h46.88V139.73z"/>
		<path class="st1" d="M34.27,92.95c0-14.4,10.6-25.05,24.41-25.05c13.87,0,24.41,10.64,24.41,25.05
			c0,14.36-10.55,25.05-24.41,25.05C44.87,118,34.27,107.31,34.27,92.95z M71.77,92.95c0-7.37-5.57-12.6-13.09-12.6
			c-7.47,0-13.04,5.22-13.04,12.6c0,7.32,5.57,12.6,13.04,12.6C66.21,105.55,71.77,100.28,71.77,92.95z"/>
	</g>
	<g>
		<path class="st2" d="M103.87,408.4h19.53v13.18H57.09v-30.71c0-13.38,8.45-24.17,23.49-24.17c14.21,0,23.29,10.79,23.29,24.17
			V408.4z M68.52,408.4h23.97v-16.02c0-6.98-4.83-12.11-11.91-12.11c-7.71,0-12.06,5.22-12.06,12.11V408.4z"/>
		<path class="st2" d="M75.55,338.62c0-14.4,10.6-25.05,24.41-25.05c13.87,0,24.41,10.64,24.41,25.05
			c0,14.36-10.55,25.05-24.41,25.05C86.15,363.67,75.55,352.98,75.55,338.62z M113.05,338.62c0-7.37-5.57-12.6-13.09-12.6
			c-7.47,0-13.04,5.22-13.04,12.6c0,7.32,5.57,12.6,13.04,12.6C107.48,351.22,113.05,345.94,113.05,338.62z"/>
		<path class="st2" d="M82.92,293.04c-4.88-2.39-7.37-6.93-7.37-12.21c0-2.78,0.73-5.13,1.07-6.1l11.18,0.98
			c-0.44,1.27-1.07,3.32-1.07,5.81c0,5.52,2.98,11.33,12.65,11.33h24.02v12.55H76.53v-12.11L82.92,293.04z"/>
		<path class="st2" d="M86.93,252.24h19.29c4.88,0,7.03-2.73,7.03-6.93c0-2.34-0.39-5.32-1.12-7.96l10.4-1.17
			c1.12,2.88,1.86,7.52,1.86,11.33c0,10.3-5.32,17.24-16.36,17.24H86.93v7.91h-10.4v-7.96H61.49v-12.16h15.04v-13.57h10.4V252.24z"
			/>
		<path class="st2" d="M86.93,212.4h36.47v12.55H86.93v8.25h-10.4v-8.35h-4.59c-10.25,0-18.26-6.45-18.26-19.34
			c0-3.86,0.88-6.59,1.66-8.89l10.25,1.32c-0.83,1.9-1.17,4.05-1.17,6.25c0,4.88,2.2,8.54,8.25,8.54h3.86v-13.38h10.4V212.4z"/>
		<path class="st2" d="M75.55,170.99c0-14.4,10.6-25.05,24.41-25.05c13.87,0,24.41,10.64,24.41,25.05
			c0,14.36-10.55,25.05-24.41,25.05C86.15,196.04,75.55,185.35,75.55,170.99z M113.05,170.99c0-7.37-5.57-12.6-13.09-12.6
			c-7.47,0-13.04,5.22-13.04,12.6c0,7.32,5.57,12.6,13.04,12.6C107.48,183.59,113.05,178.32,113.05,170.99z"/>
		<path class="st2" d="M123.4,124.26v12.5H54.65v-12.5H123.4z"/>
		<path class="st2" d="M61.49,113.37c-4.25,0-7.23-2.93-7.23-7.18s2.93-7.23,7.23-7.23c4.25,0,7.18,2.98,7.18,7.23
			S65.74,113.37,61.49,113.37z M123.4,112.45H76.53V99.9h46.88V112.45z"/>
		<path class="st2" d="M75.55,65.67c0-14.4,10.6-25.05,24.41-25.05c13.87,0,24.41,10.64,24.41,25.05
			c0,14.36-10.55,25.05-24.41,25.05C86.15,90.72,75.55,80.02,75.55,65.67z M113.05,65.67c0-7.37-5.57-12.6-13.09-12.6
			c-7.47,0-13.04,5.22-13.04,12.6c0,7.32,5.57,12.6,13.04,12.6C107.48,78.27,113.05,72.99,113.05,65.67z"/>
	</g>
</g>
</svg>
