<?xml version="1.0" encoding="utf-8"?>
<!-- Generator: Adobe Illustrator 28.0.0, SVG Export Plug-In . SVG Version: 6.00 Build 0)  -->
<svg version="1.1" id="Layer_1" xmlns="http://www.w3.org/2000/svg" xmlns:xlink="http://www.w3.org/1999/xlink" x="0px" y="0px"
	 viewBox="0 0 490 286" style="enable-background:new 0 0 490 286;" xml:space="preserve">
<style type="text/css">
	.st0{fill:#EDC9FF;}
	.st1{fill:none;stroke:#5DA9E9;stroke-width:2;stroke-miterlimit:10;}
	.st2{fill:#3F612D;}
</style>
<g>
	<rect x="232.89" y="87.47" class="st0" width="242.31" height="186.9"/>
	<g>
		<g>
			<path class="st1" d="M71.32,130.61v19.53H58.14V83.83h30.71c13.38,0,24.17,8.45,24.17,23.49c0,14.21-10.79,23.29-24.17,23.29
				H71.32z M71.32,95.26v23.97h16.02c6.98,0,12.11-4.83,12.11-11.91c0-7.71-5.22-12.06-12.11-12.06H71.32z"/>
			<path class="st1" d="M133.82,109.66c2.39-4.88,6.93-7.37,12.21-7.37c2.78,0,5.13,0.73,6.1,1.07l-0.98,11.18
				c-1.27-0.44-3.32-1.07-5.81-1.07c-5.52,0-11.33,2.98-11.33,12.65v24.02h-12.55v-46.88h12.11L133.82,109.66z"/>
			<path class="st1" d="M180.5,102.29c14.4,0,25.05,10.6,25.05,24.41c0,13.87-10.64,24.41-25.05,24.41
				c-14.36,0-25.05-10.55-25.05-24.41C155.45,112.88,166.14,102.29,180.5,102.29z M180.5,139.79c7.37,0,12.6-5.57,12.6-13.09
				c0-7.47-5.22-13.04-12.6-13.04c-7.32,0-12.6,5.57-12.6,13.04C167.9,134.22,173.18,139.79,180.5,139.79z"/>
			<path class="st1" d="M215.07,103.31h12.55v49.27c0,11.77-7.08,18.07-17.29,18.07c-4.1,0-7.42-0.88-9.13-1.76l1.17-10.06
				c1.56,0.54,3.81,0.98,5.91,0.98c4.25,0,6.79-2.2,6.79-8.06V103.31z M214.14,88.23c0-4.25,2.93-7.23,7.18-7.23
				s7.23,2.93,7.23,7.23c0,4.25-2.98,7.18-7.23,7.18S214.14,92.47,214.14,88.23z"/>
			<path class="st1" d="M281.77,146.72c-4.54,2.59-10.84,4.39-17.68,4.39c-16.6,0-27.25-9.81-27.25-24.41
				c0-14.36,10.16-24.41,24.07-24.41c14.4,0,25.34,10.84,22.27,28.17H249.3c1.27,6.54,7.13,9.67,14.84,9.67
				c5.81,0,11.23-1.37,15.87-3.56L281.77,146.72z M271.96,122.06c-0.34-5.22-4.3-9.23-10.74-9.23c-6.69,0-11.18,3.91-11.72,9.23
				H271.96z"/>
			<path class="st1" d="M316.63,102.29c5.76,0,10.74,1.32,14.75,3.12l-1.07,10.89c-3.37-1.46-7.67-2.54-12.3-2.54
				c-8.54,0-15.09,4.39-15.09,12.84c0,8.01,6.2,12.99,14.7,12.99c4.74,0,8.84-1.17,12.89-3.08l1.46,11.13
				c-4.93,2.2-9.47,3.47-15.19,3.47c-15.43,0-26.42-9.96-26.42-24.46C290.36,111.42,301.5,102.29,316.63,102.29z"/>
			<path class="st1" d="M356.67,113.66v19.29c0,4.88,2.73,7.03,6.93,7.03c2.34,0,5.32-0.39,7.96-1.12l1.17,10.4
				c-2.88,1.12-7.52,1.86-11.33,1.86c-10.3,0-17.24-5.32-17.24-16.36v-21.09h-7.91v-10.4h7.96V88.23h12.16v15.04h13.57v10.4H356.67z
				"/>
			<path class="st1" d="M401.94,122.45c9.28,1.71,13.92,5.91,13.92,14.01c0,9.42-7.81,14.65-19.82,14.65
				c-7.03,0-13.82-1.27-18.07-3.37l1.32-10.25c4.64,1.95,10.99,3.27,15.77,3.27c6.1,0,8.69-1.27,8.69-4.05c0-2.49-2-3.71-7.47-4.69
				l-5.62-1.07c-9.03-1.56-13.43-6.15-13.43-13.92c0-8.74,8.11-14.75,20.56-14.75c5.86,0,11.67,1.07,15.87,2.93l-1.07,10.21
				c-3.42-1.46-9.67-2.64-14.16-2.64c-6.15,0-9.13,1.46-9.13,4.25c0,2.29,2.05,3.47,7.67,4.49L401.94,122.45z"/>
		</g>
		<g>
			<path class="st2" d="M27.99,61.24v19.53H14.8V14.46h30.71c13.38,0,24.17,8.45,24.17,23.49c0,14.21-10.79,23.29-24.17,23.29H27.99
				z M27.99,25.89v23.97H44c6.98,0,12.11-4.83,12.11-11.91c0-7.71-5.22-12.06-12.11-12.06H27.99z"/>
			<path class="st2" d="M90.49,40.29c2.39-4.88,6.93-7.37,12.21-7.37c2.78,0,5.13,0.73,6.1,1.07l-0.98,11.18
				c-1.27-0.44-3.32-1.07-5.81-1.07c-5.52,0-11.33,2.98-11.33,12.65v24.02H78.13V33.9h12.11L90.49,40.29z"/>
			<path class="st2" d="M137.17,32.92c14.4,0,25.05,10.6,25.05,24.41c0,13.87-10.64,24.41-25.05,24.41
				c-14.36,0-25.05-10.55-25.05-24.41C112.12,43.52,122.81,32.92,137.17,32.92z M137.17,70.42c7.37,0,12.6-5.57,12.6-13.09
				c0-7.47-5.22-13.04-12.6-13.04c-7.32,0-12.6,5.57-12.6,13.04C124.57,64.85,129.84,70.42,137.17,70.42z"/>
			<path class="st2" d="M171.74,33.95h12.55v49.27c0,11.77-7.08,18.07-17.29,18.07c-4.1,0-7.42-0.88-9.13-1.76l1.17-10.06
				c1.56,0.54,3.81,0.98,5.91,0.98c4.25,0,6.79-2.2,6.79-8.06V33.95z M170.81,18.86c0-4.25,2.93-7.23,7.18-7.23s7.23,2.93,7.23,7.23
				c0,4.25-2.98,7.18-7.23,7.18S170.81,23.11,170.81,18.86z"/>
			<path class="st2" d="M238.44,77.35c-4.54,2.59-10.84,4.39-17.68,4.39c-16.6,0-27.25-9.81-27.25-24.41
				c0-14.36,10.16-24.41,24.07-24.41c14.4,0,25.34,10.84,22.27,28.17h-33.89c1.27,6.54,7.13,9.67,14.84,9.67
				c5.81,0,11.23-1.37,15.87-3.56L238.44,77.35z M228.62,52.7c-0.34-5.22-4.3-9.23-10.74-9.23c-6.69,0-11.18,3.91-11.72,9.23H228.62
				z"/>
			<path class="st2" d="M273.3,32.92c5.76,0,10.74,1.32,14.75,3.12l-1.07,10.89c-3.37-1.46-7.67-2.54-12.3-2.54
				c-8.54,0-15.09,4.39-15.09,12.84c0,8.01,6.2,12.99,14.7,12.99c4.74,0,8.84-1.17,12.89-3.08l1.46,11.13
				c-4.93,2.2-9.47,3.47-15.19,3.47c-15.43,0-26.42-9.96-26.42-24.46C247.03,42.05,258.16,32.92,273.3,32.92z"/>
			<path class="st2" d="M313.34,44.3v19.29c0,4.88,2.73,7.03,6.93,7.03c2.34,0,5.32-0.39,7.96-1.12l1.17,10.4
				c-2.88,1.12-7.52,1.86-11.33,1.86c-10.3,0-17.24-5.32-17.24-16.36V44.3h-7.91V33.9h7.96V18.86h12.16V33.9h13.57v10.4H313.34z"/>
			<path class="st2" d="M358.6,53.09c9.28,1.71,13.92,5.91,13.92,14.01c0,9.42-7.81,14.65-19.82,14.65
				c-7.03,0-13.82-1.27-18.07-3.37l1.32-10.25c4.64,1.95,10.99,3.27,15.77,3.27c6.1,0,8.69-1.27,8.69-4.05c0-2.49-2-3.71-7.47-4.69
				l-5.62-1.07c-9.03-1.56-13.43-6.15-13.43-13.92c0-8.74,8.11-14.75,20.56-14.75c5.86,0,11.67,1.07,15.87,2.93l-1.07,10.21
				c-3.42-1.46-9.67-2.64-14.16-2.64c-6.15,0-9.13,1.46-9.13,4.25c0,2.29,2.05,3.47,7.67,4.49L358.6,53.09z"/>
		</g>
	</g>
</g>
</svg>
