<?xml version="1.0" encoding="utf-8"?>
<!-- Generator: Adobe Illustrator 28.0.0, SVG Export Plug-In . SVG Version: 6.00 Build 0)  -->
<svg version="1.1" id="Layer_1" xmlns="http://www.w3.org/2000/svg" xmlns:xlink="http://www.w3.org/1999/xlink" x="0px" y="0px"
	 viewBox="0 0 586 209" style="enable-background:new 0 0 586 209;" xml:space="preserve">
<style type="text/css">
	.st0{fill:#5DA9E9;}
	.st1{fill:#EDC9FF;}
	.st2{fill:none;stroke:#3F612D;stroke-width:2;stroke-miterlimit:10;}
</style>
<g>
	<rect x="7.93" y="11.05" class="st0" width="242.31" height="186.9"/>
	<g>
		<path class="st1" d="M86.51,100.99c-5.62,2.69-12.55,4.98-22.71,4.98c-21.24,0-37.26-13.57-37.26-34.13
			c0-21.44,16.99-34.13,38.13-34.13c8.01,0,15.62,1.95,20.8,4.35l-1.03,11.82c-4.25-2.05-11.04-3.96-18.6-3.96
			c-14.16,0-25.59,7.62-25.59,21.83c0,13.48,10.55,22.31,25.34,22.31c7.47,0,14.26-1.86,19.04-4.74L86.51,100.99z"/>
		<path class="st1" d="M116.73,57.14c14.4,0,25.05,10.6,25.05,24.41c0,13.87-10.64,24.41-25.05,24.41
			c-14.36,0-25.05-10.55-25.05-24.41C91.69,67.74,102.38,57.14,116.73,57.14z M116.73,94.64c7.37,0,12.6-5.57,12.6-13.09
			c0-7.47-5.22-13.04-12.6-13.04c-7.32,0-12.6,5.57-12.6,13.04C104.14,89.08,109.41,94.64,116.73,94.64z"/>
		<path class="st1" d="M196.08,75.55V105h-12.55V78.78c0-6.49-4.2-10.01-9.67-10.01c-5.52,0-10.4,3.52-10.4,10.01V105h-12.5V58.12
			h11.91l0.24,5.42c2.44-3.27,7.47-6.4,14.45-6.4C188.41,57.14,196.08,64.27,196.08,75.55z"/>
		<path class="st1" d="M223.08,68.52v19.29c0,4.88,2.73,7.03,6.93,7.03c2.34,0,5.32-0.39,7.96-1.12l1.17,10.4
			c-2.88,1.12-7.52,1.86-11.33,1.86c-10.3,0-17.24-5.32-17.24-16.36V68.52h-7.91v-10.4h7.96V43.08h12.16v15.04h13.57v10.4H223.08z"
			/>
		<path class="st1" d="M243.15,81.46c0-14.21,9.72-24.32,22.61-24.32c7.28,0,12.21,2.78,15.28,6.64l0.24-5.66h12.26V105h-12.26
			l-0.24-5.66c-3.08,3.91-8.01,6.64-15.28,6.64C252.87,105.97,243.15,95.67,243.15,81.46z M268.2,68.33
			c-7.52,0-12.6,5.66-12.6,13.13c0,7.52,5.08,13.38,12.6,13.38c7.47,0,12.79-5.86,12.79-13.38
			C280.99,73.99,275.67,68.33,268.2,68.33z"/>
		<path class="st1" d="M329.04,57.14c5.76,0,10.74,1.32,14.75,3.12l-1.07,10.89c-3.37-1.46-7.67-2.54-12.3-2.54
			c-8.54,0-15.09,4.39-15.09,12.84c0,8.01,6.2,12.99,14.7,12.99c4.74,0,8.84-1.17,12.89-3.08l1.46,11.13
			c-4.93,2.2-9.47,3.47-15.19,3.47c-15.43,0-26.42-9.96-26.42-24.46C302.77,66.28,313.9,57.14,329.04,57.14z"/>
		<path class="st1" d="M369.08,68.52v19.29c0,4.88,2.73,7.03,6.93,7.03c2.34,0,5.32-0.39,7.96-1.12l1.17,10.4
			c-2.88,1.12-7.52,1.86-11.33,1.86c-10.3,0-17.24-5.32-17.24-16.36V68.52h-7.91v-10.4h7.96V43.08h12.16v15.04h13.57v10.4H369.08z"
			/>
		<path class="st1" d="M452.82,84.73l-22.31-25V105h-13.18V38.69h11.43l25.1,29.69l25-29.69h11.38V105h-13.13V59.68l-22.17,25.05
			H452.82z"/>
		<path class="st1" d="M544.76,101.58c-4.54,2.59-10.84,4.39-17.68,4.39c-16.6,0-27.25-9.81-27.25-24.41
			c0-14.36,10.16-24.41,24.07-24.41c14.4,0,25.34,10.84,22.27,28.17h-33.89c1.27,6.54,7.13,9.67,14.84,9.67
			c5.81,0,11.23-1.37,15.87-3.56L544.76,101.58z M534.95,76.92c-0.34-5.22-4.3-9.23-10.74-9.23c-6.69,0-11.18,3.91-11.72,9.23
			H534.95z"/>
	</g>
	<g>
		<path class="st2" d="M114.55,138.19c-5.62,2.69-12.55,4.98-22.71,4.98c-21.24,0-37.26-13.57-37.26-34.13
			c0-21.44,16.99-34.13,38.13-34.13c8.01,0,15.62,1.95,20.8,4.35l-1.03,11.82c-4.25-2.05-11.04-3.96-18.6-3.96
			c-14.16,0-25.59,7.62-25.59,21.83c0,13.48,10.55,22.31,25.34,22.31c7.47,0,14.26-1.86,19.04-4.74L114.55,138.19z"/>
		<path class="st2" d="M144.77,94.34c14.4,0,25.05,10.6,25.05,24.41c0,13.87-10.64,24.41-25.05,24.41
			c-14.36,0-25.05-10.55-25.05-24.41C119.72,104.94,130.41,94.34,144.77,94.34z M144.77,131.84c7.37,0,12.6-5.57,12.6-13.09
			c0-7.47-5.22-13.04-12.6-13.04c-7.32,0-12.6,5.57-12.6,13.04C132.17,126.28,137.45,131.84,144.77,131.84z"/>
		<path class="st2" d="M224.12,112.75v29.44h-12.55v-26.22c0-6.49-4.2-10.01-9.67-10.01c-5.52,0-10.4,3.52-10.4,10.01v26.22H179
			V95.32h11.91l0.24,5.42c2.44-3.27,7.47-6.4,14.45-6.4C216.45,94.34,224.12,101.47,224.12,112.75z"/>
		<path class="st2" d="M251.12,105.72v19.29c0,4.88,2.73,7.03,6.93,7.03c2.34,0,5.32-0.39,7.96-1.12l1.17,10.4
			c-2.88,1.12-7.52,1.86-11.33,1.86c-10.3,0-17.24-5.32-17.24-16.36v-21.09h-7.91v-10.4h7.96V80.28h12.16v15.04h13.57v10.4H251.12z"
			/>
		<path class="st2" d="M271.19,118.66c0-14.21,9.72-24.32,22.61-24.32c7.28,0,12.21,2.78,15.28,6.64l0.24-5.66h12.26v46.88h-12.26
			l-0.24-5.66c-3.08,3.91-8.01,6.64-15.28,6.64C280.9,143.17,271.19,132.87,271.19,118.66z M296.23,105.52
			c-7.52,0-12.6,5.66-12.6,13.13c0,7.52,5.08,13.38,12.6,13.38c7.47,0,12.79-5.86,12.79-13.38
			C309.03,111.19,303.71,105.52,296.23,105.52z"/>
		<path class="st2" d="M357.07,94.34c5.76,0,10.74,1.32,14.75,3.12l-1.07,10.89c-3.37-1.46-7.67-2.54-12.3-2.54
			c-8.54,0-15.09,4.39-15.09,12.84c0,8.01,6.2,12.99,14.7,12.99c4.74,0,8.84-1.17,12.89-3.08l1.46,11.13
			c-4.93,2.2-9.47,3.47-15.19,3.47c-15.43,0-26.42-9.96-26.42-24.46C330.81,103.47,341.94,94.34,357.07,94.34z"/>
		<path class="st2" d="M397.11,105.72v19.29c0,4.88,2.73,7.03,6.93,7.03c2.34,0,5.32-0.39,7.96-1.12l1.17,10.4
			c-2.88,1.12-7.52,1.86-11.33,1.86c-10.3,0-17.24-5.32-17.24-16.36v-21.09h-7.91v-10.4h7.96V80.28h12.16v15.04h13.57v10.4H397.11z"
			/>
		<path class="st2" d="M480.85,121.93l-22.31-25v45.26h-13.18V75.88h11.43l25.1,29.69l25-29.69h11.38v66.31h-13.13V96.88
			l-22.17,25.05H480.85z"/>
		<path class="st2" d="M572.8,138.78c-4.54,2.59-10.84,4.39-17.68,4.39c-16.6,0-27.25-9.81-27.25-24.41
			c0-14.36,10.16-24.41,24.07-24.41c14.4,0,25.34,10.84,22.27,28.17h-33.89c1.27,6.54,7.13,9.67,14.84,9.67
			c5.81,0,11.23-1.37,15.87-3.56L572.8,138.78z M562.98,114.12c-0.34-5.22-4.3-9.23-10.74-9.23c-6.69,0-11.18,3.91-11.72,9.23
			H562.98z"/>
	</g>
</g>
</svg>
