<?xml version="1.0" encoding="utf-8"?>
<!-- Generator: Adobe Illustrator 28.0.0, SVG Export Plug-In . SVG Version: 6.00 Build 0)  -->
<svg version="1.1" id="Layer_1" xmlns="http://www.w3.org/2000/svg" xmlns:xlink="http://www.w3.org/1999/xlink" x="0px" y="0px"
	 viewBox="0 0 1920 1080" style="enable-background:new 0 0 1920 1080;" xml:space="preserve">
<style type="text/css">
	.st0{fill:#3F612D;}
</style>
<g>
	<g>
		<path class="st0" d="M1098.21,59.1c57.54,0,104.33,46.81,104.33,104.33v753.14c0,57.54-46.81,104.33-104.33,104.33H821.79
			c-57.54,0-104.33-46.81-104.33-104.33V163.43c0-57.54,46.81-104.33,104.33-104.33H1098.21 M1098.21,25.84H821.79
			c-76,0-137.59,61.59-137.59,137.59v753.14c0,76,61.59,137.59,137.59,137.59h276.43c76,0,137.59-61.59,137.59-137.59V163.43
			C1235.8,87.43,1174.21,25.84,1098.21,25.84L1098.21,25.84z"/>
	</g>
	<g>
		<path class="st0" d="M1137.74,157.5c35.76,0,64.83,29.08,64.83,64.83V857.7c0,35.76-29.08,64.83-64.83,64.83H782.29
			c-35.76,0-64.83-29.08-64.83-64.83V222.33c0-35.76,29.08-64.83,64.83-64.83H1137.74 M1137.74,124.24H782.29
			c-54.16,0-98.09,43.9-98.09,98.09V857.7c0,54.16,43.9,98.09,98.09,98.09h355.42c54.16,0,98.09-43.9,98.09-98.09V222.33
			C1235.8,168.14,1191.9,124.24,1137.74,124.24L1137.74,124.24z"/>
	</g>
</g>
</svg>
